<?xml version="1.0" encoding="UTF-8" standalone="no"?>
<!DOCTYPE svg PUBLIC "-//W3C//DTD SVG 1.1//EN" "http://www.w3.org/Graphics/SVG/1.1/DTD/svg11.dtd">
<svg width="100%" height="100%" viewBox="0 0 500 500" version="1.1" xmlns="http://www.w3.org/2000/svg" xmlns:xlink="http://www.w3.org/1999/xlink" xml:space="preserve" xmlns:serif="http://www.serif.com/" style="fill-rule:evenodd;clip-rule:evenodd;stroke-linejoin:round;stroke-miterlimit:2;">
    <g id="Hierarchy-4--Streamline-Plump.svg" transform="matrix(8.22758,0,0,8.22758,256,250)">
        <g transform="matrix(1,0,0,1,-24,-24)">
            <g id="Flat-Interface-Essential-Hierarchy-hierarchy-4--node-organization-links-structure-link-nodes-network-hierarchy" serif:id="Flat/Interface Essential/Hierarchy/hierarchy-4--node-organization-links-structure-link-nodes-network-hierarchy">
                <path id="Union" d="M10.868,13.772C10.99,13.71 11.118,13.657 11.25,13.616C11.662,13.485 12.088,13.468 12.491,13.549C12.786,13.608 13.063,13.718 13.311,13.871C13.617,14.059 13.885,14.315 14.091,14.628C14.176,14.757 14.249,14.895 14.309,15.039C16.352,19.579 20.868,22.501 25.85,22.501L29.001,22.501C30.381,22.501 31.501,23.62 31.501,25.001C31.501,26.381 30.381,27.501 29.001,27.501L25.85,27.501C21.614,27.501 17.62,25.987 14.501,23.37L14.501,32.001C14.501,33.382 13.382,34.501 12.001,34.501C10.62,34.501 9.501,33.382 9.501,32.001L9.501,16.072C9.495,15.854 9.517,15.639 9.566,15.43C9.73,14.734 10.189,14.116 10.868,13.772Z" style="fill:rgb(40,89,197);fill-rule:nonzero;"/>
                <path id="Union_2" d="M12,0.5C10.458,0.5 9.257,0.531 8.329,0.574C5.948,0.686 3.945,2.298 3.684,4.835C3.577,5.876 3.5,7.237 3.5,9C3.5,10.763 3.577,12.124 3.684,13.165C3.945,15.702 5.948,17.314 8.329,17.426C9.257,17.469 10.458,17.5 12,17.5C13.542,17.5 14.743,17.469 15.671,17.426C18.052,17.314 20.055,15.702 20.316,13.165C20.423,12.124 20.5,10.763 20.5,9C20.5,7.237 20.423,5.876 20.316,4.835C20.055,2.298 18.052,0.686 15.671,0.574C14.743,0.531 13.542,0.5 12,0.5Z" style="fill:rgb(143,191,250);fill-rule:nonzero;"/>
                <path id="Union_3" d="M36,16.5C34.458,16.5 33.257,16.531 32.329,16.574C29.948,16.686 27.945,18.298 27.684,20.835C27.577,21.876 27.5,23.237 27.5,25C27.5,26.763 27.577,28.124 27.684,29.165C27.945,31.702 29.948,33.314 32.329,33.426C33.257,33.469 34.458,33.5 36,33.5C37.542,33.5 38.743,33.469 39.671,33.426C42.052,33.314 44.055,31.702 44.316,29.165C44.423,28.124 44.5,26.763 44.5,25C44.5,23.237 44.423,21.876 44.316,20.835C44.055,18.298 42.052,16.686 39.671,16.574C38.743,16.531 37.542,16.5 36,16.5Z" style="fill:rgb(143,191,250);fill-rule:nonzero;"/>
                <path id="Union_4" d="M12,30.5C10.458,30.5 9.257,30.531 8.329,30.574C5.948,30.686 3.945,32.298 3.684,34.835C3.577,35.876 3.5,37.237 3.5,39C3.5,40.763 3.577,42.124 3.684,43.165C3.945,45.702 5.948,47.314 8.329,47.426C9.257,47.469 10.458,47.5 12,47.5C13.542,47.5 14.743,47.469 15.671,47.426C18.052,47.314 20.055,45.702 20.316,43.165C20.423,42.124 20.5,40.763 20.5,39C20.5,37.237 20.423,35.876 20.316,34.835C20.055,32.298 18.052,30.686 15.671,30.574C14.743,30.531 13.542,30.5 12,30.5Z" style="fill:rgb(143,191,250);fill-rule:nonzero;"/>
            </g>
        </g>
    </g>
</svg>
